<?xml version="1.0" encoding="UTF-8" standalone="no"?><svg width="20" height="20" viewBox="0 0 20 20" xmlns="http://www.w3.org/2000/svg"><path d="M10 20C4.488 20 0 15.512 0 10S4.488 0 10 0s10 4.488 10 10-4.488 10-10 10zm0-18.605c-4.744 0-8.605 3.86-8.605 8.605 0 4.744 3.86 8.605 8.605 8.605 4.744 0 8.605-3.86 8.605-8.605 0-4.744-3.86-8.605-8.605-8.605zm.731 4.243a.674.674 0 0 0-.023.977l2.65 2.674H4.988a.685.685 0 0 0-.698.698c0 .395.302.697.698.697h8.372l-2.675 2.652a.688.688 0 0 0 0 .953c.256.28.698.302.977.023l3.837-3.837a.67.67 0 0 0 .21-.488.633.633 0 0 0-.21-.489l-3.837-3.837a.683.683 0 0 0-.93-.023z" fill="#27c8d2"/></svg>
