<?xml version="1.0" encoding="UTF-8" standalone="no"?>
<svg width="20px" height="20px" viewBox="266 371 20 20" version="1.1" xmlns="http://www.w3.org/2000/svg">
  <path d="M276,391 C270.488372,391 266,386.511628 266,381 C266,375.488372 270.488372,371 276,371 C281.511628,371 286,375.488372 286,381 C286,386.511628 281.511628,391 276,391 Z M276,372.395349 C271.255814,372.395349 267.395349,376.255814 267.395349,381 C267.395349,385.744186 271.255814,389.604651 276,389.604651 C280.744186,389.604651 284.604651,385.744186 284.604651,381 C284.604651,376.255814 280.744186,372.395349 276,372.395349 Z M280.348837,381.72093 C280.093023,381.44186 279.651163,381.418605 279.372093,381.697674 L276.697674,384.348837 L276.697674,375.976744 C276.697674,375.581395 276.395349,375.27907 276,375.27907 C275.604651,375.27907 275.302326,375.581395 275.302326,375.976744 L275.302326,384.348837 L272.651163,381.674419 C272.372093,381.418605 271.976744,381.418605 271.697674,381.674419 C271.418605,381.930233 271.395349,382.372093 271.674419,382.651163 L275.511628,386.488372 C275.651163,386.627907 275.813953,386.697674 276,386.697674 C276.186047,386.697674 276.372093,386.627907 276.488372,386.488372 L280.325581,382.651163 C280.581395,382.395349 280.581395,381.976744 280.348837,381.72093 Z" stroke="none" fill="#5344D8" fill-rule="nonzero"></path>
</svg>
