<?xml version="1.0" encoding="UTF-8" standalone="no"?><svg width="183" height="28" viewBox="111 211 183 28" xmlns="http://www.w3.org/2000/svg"><path d="M111.72 228.64l4.212-.864v2.376c0 1.512.372 2.61 1.116 3.294.744.684 1.68 1.026 2.808 1.026 1.152 0 2.064-.366 2.736-1.098.672-.732 1.008-1.746 1.008-3.042v-17.856h4.32v17.748a8.923 8.923 0 0 1-.576 3.204 8.142 8.142 0 0 1-1.62 2.646 7.666 7.666 0 0 1-2.52 1.8c-.984.444-2.088.666-3.312.666-1.248 0-2.376-.198-3.384-.594-1.008-.396-1.866-.954-2.574-1.674a7.404 7.404 0 0 1-1.638-2.592c-.384-1.008-.576-2.136-.576-3.384v-1.656zm33.084 7.416c-.432.792-1.11 1.398-2.034 1.818-.924.42-1.902.63-2.934.63-1.056 0-1.992-.18-2.808-.54a5.92 5.92 0 0 1-2.07-1.494 6.69 6.69 0 0 1-1.296-2.214c-.3-.84-.45-1.752-.45-2.736v-11.052h4.176v10.296c0 .552.066 1.068.198 1.548s.342.9.63 1.26.654.648 1.098.864c.444.216.978.324 1.602.324 1.224 0 2.142-.366 2.754-1.098.612-.732.918-1.674.918-2.826v-10.368h4.176v14.328c0 .72.018 1.35.054 1.89.036.54.078.978.126 1.314h-3.996a5.088 5.088 0 0 1-.108-.846 17.054 17.054 0 0 1-.036-1.098zM158.34 238h-4.176v-17.532h4.068v2.34c.576-1.008 1.338-1.734 2.286-2.178a6.767 6.767 0 0 1 2.898-.666c1.08 0 2.016.18 2.808.54.792.36 1.446.858 1.962 1.494a6.628 6.628 0 0 1 1.17 2.214c.264.84.396 1.74.396 2.7V238h-4.176v-10.368c0-1.08-.27-1.998-.81-2.754s-1.47-1.134-2.79-1.134c-1.2 0-2.106.402-2.718 1.206-.612.804-.918 1.782-.918 2.934V238zm16.488 0v-17.532h4.14V238h-4.14zm-.648-23.688c0-.768.264-1.416.792-1.944a2.6 2.6 0 0 1 1.908-.792c.768 0 1.416.264 1.944.792s.792 1.176.792 1.944-.264 1.41-.792 1.926-1.176.774-1.944.774c-.744 0-1.38-.258-1.908-.774s-.792-1.158-.792-1.926zm17.892 5.616c1.32 0 2.532.234 3.636.702a8.844 8.844 0 0 1 2.88 1.944 8.86 8.86 0 0 1 1.908 2.934c.456 1.128.684 2.364.684 3.708 0 1.344-.228 2.586-.684 3.726a8.817 8.817 0 0 1-1.908 2.952 8.844 8.844 0 0 1-2.88 1.944c-1.104.468-2.316.702-3.636.702-1.296 0-2.502-.234-3.618-.702a8.597 8.597 0 0 1-2.88-1.944 8.962 8.962 0 0 1-1.89-2.952c-.456-1.14-.684-2.382-.684-3.726 0-1.344.228-2.58.684-3.708a9.007 9.007 0 0 1 1.89-2.934 8.597 8.597 0 0 1 2.88-1.944c1.116-.468 2.322-.702 3.618-.702zm0 14.868a4.86 4.86 0 0 0 1.854-.36 4.59 4.59 0 0 0 1.566-1.062c.456-.468.816-1.05 1.08-1.746.264-.696.396-1.5.396-2.412 0-.912-.132-1.71-.396-2.394-.264-.684-.624-1.26-1.08-1.728a4.377 4.377 0 0 0-1.566-1.044 5.083 5.083 0 0 0-1.854-.342c-.648 0-1.266.114-1.854.342a4.21 4.21 0 0 0-1.548 1.044c-.444.468-.804 1.044-1.08 1.728-.276.684-.414 1.482-.414 2.394 0 .912.138 1.716.414 2.412.276.696.636 1.278 1.08 1.746.444.468.96.822 1.548 1.062a4.86 4.86 0 0 0 1.854.36zm23.4-10.188a9.236 9.236 0 0 0-1.368-.108c-1.632 0-2.826.444-3.582 1.332-.756.888-1.134 2.16-1.134 3.816V238h-4.176v-17.532h4.068v2.808a4.595 4.595 0 0 1 1.98-2.232c.912-.528 1.944-.792 3.096-.792.264 0 .492.012.684.036.192.024.336.048.432.072v4.248zm1.44 4.032l4.212-.864v2.376c0 1.512.372 2.61 1.116 3.294.744.684 1.68 1.026 2.808 1.026 1.152 0 2.064-.366 2.736-1.098.672-.732 1.008-1.746 1.008-3.042v-17.856h4.32v17.748a8.923 8.923 0 0 1-.576 3.204 8.142 8.142 0 0 1-1.62 2.646 7.666 7.666 0 0 1-2.52 1.8c-.984.444-2.088.666-3.312.666-1.248 0-2.376-.198-3.384-.594-1.008-.396-1.866-.954-2.574-1.674a7.404 7.404 0 0 1-1.638-2.592c-.384-1.008-.576-2.136-.576-3.384v-1.656zm29.376 6.156a4.86 4.86 0 0 0 1.854-.36 4.59 4.59 0 0 0 1.566-1.062c.456-.468.816-1.05 1.08-1.746.264-.696.396-1.5.396-2.412 0-.912-.132-1.71-.396-2.394-.264-.684-.624-1.26-1.08-1.728a4.377 4.377 0 0 0-1.566-1.044 5.083 5.083 0 0 0-1.854-.342c-.648 0-1.266.114-1.854.342a4.21 4.21 0 0 0-1.548 1.044c-.444.468-.804 1.044-1.08 1.728-.276.684-.414 1.482-.414 2.394 0 .912.138 1.716.414 2.412.276.696.636 1.278 1.08 1.746.444.468.96.822 1.548 1.062a4.86 4.86 0 0 0 1.854.36zm0-14.868c1.32 0 2.532.234 3.636.702a8.844 8.844 0 0 1 2.88 1.944 8.86 8.86 0 0 1 1.908 2.934c.456 1.128.684 2.364.684 3.708 0 1.344-.228 2.586-.684 3.726a8.817 8.817 0 0 1-1.908 2.952 8.844 8.844 0 0 1-2.88 1.944c-1.104.468-2.316.702-3.636.702-1.296 0-2.502-.234-3.618-.702a8.597 8.597 0 0 1-2.88-1.944 8.962 8.962 0 0 1-1.89-2.952c-.456-1.14-.684-2.382-.684-3.726 0-1.344.228-2.58.684-3.708a9.007 9.007 0 0 1 1.89-2.934 8.597 8.597 0 0 1 2.88-1.944c1.116-.468 2.322-.702 3.618-.702zM259.428 238v-26.064h4.104v10.692c.408-.696 1.086-1.308 2.034-1.836.948-.528 2.106-.792 3.474-.792 1.32 0 2.484.234 3.492.702a7.146 7.146 0 0 1 2.538 1.944c.684.828 1.2 1.794 1.548 2.898.348 1.104.522 2.304.522 3.6 0 1.32-.192 2.55-.576 3.69-.384 1.14-.93 2.124-1.638 2.952a7.452 7.452 0 0 1-2.592 1.944c-1.02.468-2.166.702-3.438.702-1.248 0-2.334-.252-3.258-.756-.924-.504-1.638-1.176-2.142-2.016V238h-4.068zm13.5-8.82c0-1.752-.438-3.102-1.314-4.05-.876-.948-2.01-1.422-3.402-1.422-1.344 0-2.466.474-3.366 1.422-.9.948-1.35 2.298-1.35 4.05 0 .864.12 1.638.36 2.322.24.684.57 1.266.99 1.746.42.48.918.846 1.494 1.098.576.252 1.2.378 1.872.378 1.368 0 2.496-.492 3.384-1.476.888-.984 1.332-2.34 1.332-4.068zm10.332 3.06c.072.792.402 1.488.99 2.088.588.6 1.446.9 2.574.9.864 0 1.518-.198 1.962-.594.444-.396.666-.87.666-1.422 0-.48-.168-.888-.504-1.224-.336-.336-.852-.576-1.548-.72l-2.592-.576c-1.56-.336-2.736-.966-3.528-1.89a4.8 4.8 0 0 1-1.188-3.222c0-.768.168-1.494.504-2.178a5.875 5.875 0 0 1 1.368-1.8 6.523 6.523 0 0 1 2.034-1.224 7.01 7.01 0 0 1 2.538-.45c1.224 0 2.25.174 3.078.522.828.348 1.506.774 2.034 1.278.528.504.918 1.038 1.17 1.602.252.564.414 1.062.486 1.494l-3.528 1.008a5.188 5.188 0 0 0-.252-.828 2.6 2.6 0 0 0-.558-.864 3.093 3.093 0 0 0-.972-.666c-.396-.18-.882-.27-1.458-.27-.744 0-1.35.198-1.818.594-.468.396-.702.87-.702 1.422 0 .48.156.876.468 1.188.312.312.744.528 1.296.648l2.664.54c1.656.36 2.91 1.014 3.762 1.962.852.948 1.278 2.07 1.278 3.366 0 .672-.138 1.338-.414 1.998a5.578 5.578 0 0 1-1.224 1.8c-.54.54-1.23.978-2.07 1.314-.84.336-1.812.504-2.916.504-1.272 0-2.352-.18-3.24-.54-.888-.36-1.62-.81-2.196-1.35-.576-.54-1.008-1.116-1.296-1.728-.288-.612-.456-1.17-.504-1.674l3.636-1.008z" fill="#fff" fill-rule="evenodd"/></svg>
